# xmcd
#
# Track frame offsets:
#	150
#	18236
#	46788
#	69244
#	105494
#	120858
#	154274
#
# Disc length: 2651 seconds
#
# Revision: 1
# Processed by: cddbd v1.5.1PL2 Copyright (c) Steve Scherf et al.
# Submitted via: EasyCDDAExtractor 9.0.0.1
#
DISCID=450a5907
DTITLE=Deep Purple - Arrow Rock Festival Lichtenvoorde 09-06-06 Disc 2
DYEAR=2006
DGENRE=Hard Rock
TTITLE0=Don's Solo
TTITLE1=Perfect Strangers
TTITLE2=Space Truckin'
TTITLE3=Highway Star
TTITLE4=Steve and Neil Schon
TTITLE5=Smoke On The Water and Neil Schon
TTITLE6=Black Night
EXTD=
EXTT0=
EXTT1=
EXTT2=
EXTT3=
EXTT4=
EXTT5=
EXTT6=
PLAYORDER=
